<svg width="33" height="40" viewBox="0 0 33 40" fill="none" xmlns="http://www.w3.org/2000/svg">
<g id="apple_logo.svg" clip-path="url(#clip0_36_919)">
<g id="Group">
<path id="Vector" d="M31.7476 13.6471C29.0822 15.2941 27.436 18.1176 27.436 21.2549C27.436 24.7843 29.5526 28 32.7667 29.3333C32.1396 31.3726 31.1989 33.2549 30.023 34.9804C28.2983 37.4118 26.4952 39.9216 23.8299 39.9216C21.1645 39.9216 20.3805 38.3529 17.2448 38.3529C14.1875 38.3529 13.0899 40 10.5814 40C8.07276 40 6.3481 37.7255 4.38826 34.902C1.80127 30.9804 0.311792 26.4314 0.233398 21.6471C0.233398 13.8824 5.25059 9.72549 10.2678 9.72549C12.9332 9.72549 15.1282 11.451 16.7744 11.451C18.3423 11.451 20.8509 9.64706 23.8299 9.64706C26.9656 9.56863 29.9446 11.0588 31.7476 13.6471ZM22.4188 6.35294C23.7515 4.78431 24.457 2.82353 24.5354 0.784314C24.5354 0.54902 24.5354 0.235294 24.457 0C22.1836 0.235294 20.067 1.33333 18.5775 3.05882C17.2448 4.54902 16.4609 6.43137 16.3825 8.47059C16.3825 8.70588 16.3825 8.94118 16.4609 9.17647C16.6177 9.17647 16.8528 9.2549 17.0096 9.2549C19.1262 9.09804 21.0861 8 22.4188 6.35294Z" fill="black"/>
</g>
</g>
<defs>
<clipPath id="clip0_36_919">
<rect width="32.5333" height="40" fill="white" transform="translate(0.233398)"/>
</clipPath>
</defs>
</svg>
