<svg width="41" height="40" viewBox="0 0 41 40" fill="none" xmlns="http://www.w3.org/2000/svg">
<g id="facebook_symbol.svg" clip-path="url(#clip0_36_922)">
<g id="g10">
<g id="g12">
<path id="path14" d="M40.7666 20C40.7666 8.95434 31.8123 4.57764e-05 20.7666 4.57764e-05C9.7209 4.57764e-05 0.766602 8.95434 0.766602 20C0.766602 29.9826 8.08031 38.2567 17.6416 39.7571V25.7813H12.5635V20H17.6416V15.5938C17.6416 10.5813 20.6275 7.81255 25.1959 7.81255C27.3841 7.81255 29.6729 8.20317 29.6729 8.20317V13.125H27.1509C24.6664 13.125 23.8916 14.6667 23.8916 16.2484V20H29.4385L28.5518 25.7813H23.8916V39.7571C33.4529 38.2567 40.7666 29.9826 40.7666 20Z" fill="#1877F2"/>
<path id="path16" d="M28.5518 25.7812L29.4385 20H23.8916V16.2483C23.8916 14.6667 24.6664 13.125 27.1509 13.125H29.6729V8.20312C29.6729 8.20312 27.3841 7.8125 25.1959 7.8125C20.6275 7.8125 17.6416 10.5812 17.6416 15.5938V20H12.5635V25.7812H17.6416V39.757C18.6598 39.9168 19.7035 40 20.7666 40C21.8297 40 22.8734 39.9168 23.8916 39.757V25.7812H28.5518Z" fill="white"/>
</g>
</g>
</g>
<defs>
<clipPath id="clip0_36_922">
<rect width="40" height="40" fill="white" transform="translate(0.766602)"/>
</clipPath>
</defs>
</svg>
