<svg width="41" height="40" viewBox="0 0 41 40" fill="none" xmlns="http://www.w3.org/2000/svg">
<g id="google_symbol.svg">
<path id="Vector" d="M37.8334 20.4166C37.8334 19.1166 37.7167 17.8666 37.5001 16.6666H20.2334V23.7583H30.1001C29.6751 26.05 28.3834 27.9916 26.4417 29.2916V33.8916H32.3667C35.8334 30.7 37.8334 26 37.8334 20.4166Z" fill="#4285F4"/>
<path id="Vector_2" d="M20.2334 38.3333C25.1834 38.3333 29.3334 36.6916 32.3668 33.8916L26.4418 29.2916C24.8001 30.3916 22.7001 31.0416 20.2334 31.0416C15.4584 31.0416 11.4168 27.8166 9.9751 23.4833H3.8501V28.2333C6.86676 34.2249 13.0668 38.3333 20.2334 38.3333Z" fill="#34A853"/>
<path id="Vector_3" d="M9.97515 23.4834C9.60848 22.3834 9.40015 21.2084 9.40015 20.0001C9.40015 18.7917 9.60848 17.6167 9.97515 16.5167V11.7667H3.85015C2.56681 14.3215 1.89902 17.1411 1.90015 20.0001C1.90015 22.9584 2.60848 25.7584 3.85015 28.2334L9.97515 23.4834Z" fill="#FBBC05"/>
<path id="Vector_4" d="M20.2334 8.95829C22.9251 8.95829 25.3418 9.88329 27.2418 11.7L32.5001 6.44163C29.3251 3.48329 25.1751 1.66663 20.2334 1.66663C13.0668 1.66663 6.86676 5.77496 3.8501 11.7666L9.9751 16.5166C11.4168 12.1833 15.4584 8.95829 20.2334 8.95829Z" fill="#EA4335"/>
</g>
</svg>
