<svg width="118" height="61" viewBox="0 0 118 61" fill="none" xmlns="http://www.w3.org/2000/svg">
    <path d="M15.1203 6.81065C14.6052 5.72708 13.8591 4.89219 12.8821 4.306C11.9051 3.70204 10.7683 3.40007 9.47155 3.40007C8.17482 3.40007 7.00243 3.70204 5.95439 4.306C4.92411 4.89219 4.10699 5.74484 3.50303 6.86394C2.91684 7.96527 2.62374 9.24424 2.62374 10.7008C2.62374 12.1574 2.91684 13.4364 3.50303 14.5377C4.10699 15.6391 4.92411 16.4917 5.95439 17.0957C7.00243 17.6819 8.17482 17.975 9.47155 17.975C11.2834 17.975 12.7755 17.4332 13.9479 16.3496C15.1203 15.266 15.8042 13.8006 15.9996 11.9532H8.59226V9.98142H18.5842V11.8466C18.4421 13.3742 17.9625 14.7775 17.1454 16.0565C16.3282 17.3177 15.2535 18.3214 13.9213 19.0674C12.589 19.7957 11.1058 20.1599 9.47155 20.1599C7.74849 20.1599 6.17643 19.7602 4.75535 18.9608C3.33428 18.1437 2.2063 17.0157 1.37142 15.5769C0.554301 14.1381 0.145742 12.5127 0.145742 10.7008C0.145742 8.88897 0.554301 7.26361 1.37142 5.82478C2.2063 4.36817 3.33428 3.24019 4.75535 2.44084C6.17643 1.62372 7.74849 1.21516 9.47155 1.21516C11.4433 1.21516 13.1841 1.70366 14.694 2.68065C16.2217 3.65764 17.3319 5.0343 18.0246 6.81065H15.1203ZM25.0142 0.282582V20H22.5895V0.282582H25.0142ZM29.0401 12.6459C29.0401 11.1538 29.3421 9.84819 29.9461 8.7291C30.55 7.59224 31.376 6.71295 32.4241 6.09123C33.4899 5.46951 34.6711 5.15865 35.9679 5.15865C37.2468 5.15865 38.3571 5.43398 39.2985 5.98465C40.24 6.53531 40.9416 7.22809 41.4035 8.06297V5.39845H43.8548V20H41.4035V17.2822C40.9239 18.1348 40.2044 18.8454 39.2452 19.4138C38.3038 19.9645 37.2024 20.2398 35.9412 20.2398C34.6445 20.2398 33.4721 19.9201 32.4241 19.2806C31.376 18.6411 30.55 17.744 29.9461 16.5894C29.3421 15.4348 29.0401 14.1203 29.0401 12.6459ZM41.4035 12.6726C41.4035 11.5712 41.1814 10.612 40.7374 9.7949C40.2933 8.97779 39.6893 8.35607 38.9255 7.92974C38.1794 7.48566 37.3534 7.26361 36.4475 7.26361C35.5415 7.26361 34.7155 7.47677 33.9695 7.9031C33.2234 8.32942 32.6283 8.95114 32.1843 9.76826C31.7402 10.5854 31.5181 11.5446 31.5181 12.6459C31.5181 13.765 31.7402 14.742 32.1843 15.5769C32.6283 16.394 33.2234 17.0246 33.9695 17.4687C34.7155 17.895 35.5415 18.1082 36.4475 18.1082C37.3534 18.1082 38.1794 17.895 38.9255 17.4687C39.6893 17.0246 40.2933 16.394 40.7374 15.5769C41.1814 14.742 41.4035 13.7739 41.4035 12.6726ZM66.3109 5.132C67.4477 5.132 68.4603 5.37181 69.3484 5.85142C70.2366 6.31327 70.9383 7.01493 71.4534 7.95639C71.9685 8.89785 72.2261 10.0436 72.2261 11.3936V20H69.828V11.74C69.828 10.2834 69.4639 9.17318 68.7356 8.40936C68.025 7.62776 67.0569 7.23697 65.8313 7.23697C64.5701 7.23697 63.5664 7.64553 62.8204 8.46265C62.0743 9.262 61.7013 10.4255 61.7013 11.9532V20H59.3032V11.74C59.3032 10.2834 58.939 9.17318 58.2107 8.40936C57.5002 7.62776 56.5321 7.23697 55.3064 7.23697C54.0452 7.23697 53.0416 7.64553 52.2955 8.46265C51.5495 9.262 51.1764 10.4255 51.1764 11.9532V20H48.7517V5.39845H51.1764V7.50342C51.656 6.73959 52.2955 6.1534 53.0949 5.74484C53.912 5.33628 54.809 5.132 55.786 5.132C57.0117 5.132 58.0953 5.40733 59.0367 5.958C59.9782 6.50867 60.6799 7.3169 61.1417 8.38271C61.5503 7.35243 62.2253 6.55308 63.1667 5.98465C64.1082 5.41622 65.1563 5.132 66.3109 5.132ZM0.145742 50.7008C0.145742 48.889 0.554301 47.2636 1.37142 45.8248C2.18854 44.3682 3.29875 43.2313 4.70206 42.4142C6.12314 41.5971 7.6952 41.1885 9.41826 41.1885C11.4433 41.1885 13.2108 41.677 14.7206 42.654C16.2305 43.631 17.3319 45.0165 18.0246 46.8106H15.1203C14.6052 45.6915 13.8591 44.83 12.8821 44.2261C11.9229 43.6221 10.7683 43.3201 9.41826 43.3201C8.12153 43.3201 6.95802 43.6221 5.92774 44.2261C4.89746 44.83 4.08923 45.6915 3.50303 46.8106C2.91684 47.912 2.62374 49.2087 2.62374 50.7008C2.62374 52.1752 2.91684 53.4719 3.50303 54.591C4.08923 55.6924 4.89746 56.545 5.92774 57.149C6.95802 57.7529 8.12153 58.0549 9.41826 58.0549C10.7683 58.0549 11.9229 57.7618 12.8821 57.1756C13.8591 56.5717 14.6052 55.7101 15.1203 54.591H18.0246C17.3319 56.3674 16.2305 57.744 14.7206 58.721C13.2108 59.6803 11.4433 60.1599 9.41826 60.1599C7.6952 60.1599 6.12314 59.7602 4.70206 58.9608C3.29875 58.1437 2.18854 57.0157 1.37142 55.5769C0.554301 54.1381 0.145742 52.5127 0.145742 50.7008ZM28.8016 60.2398C27.4338 60.2398 26.1903 59.9289 25.0712 59.3072C23.9699 58.6855 23.0995 57.8062 22.46 56.6694C21.8383 55.5147 21.5274 54.1825 21.5274 52.6726C21.5274 51.1805 21.8472 49.866 22.4867 48.7291C23.1439 47.5745 24.0321 46.6952 25.1512 46.0912C26.2703 45.4695 27.5226 45.1586 28.9082 45.1586C30.2937 45.1586 31.546 45.4695 32.6651 46.0912C33.7842 46.6952 34.6635 47.5656 35.303 48.7025C35.9602 49.8393 36.2889 51.1627 36.2889 52.6726C36.2889 54.1825 35.9514 55.5147 35.2763 56.6694C34.6191 57.8062 33.722 58.6855 32.5852 59.3072C31.4483 59.9289 30.1871 60.2398 28.8016 60.2398ZM28.8016 58.1082C29.672 58.1082 30.4891 57.9039 31.2529 57.4954C32.0168 57.0868 32.6296 56.474 33.0914 55.6568C33.5711 54.8397 33.8109 53.845 33.8109 52.6726C33.8109 51.5002 33.5799 50.5054 33.1181 49.6883C32.6562 48.8712 32.0523 48.2672 31.3062 47.8765C30.5602 47.4679 29.7519 47.2636 28.8815 47.2636C27.9933 47.2636 27.1762 47.4679 26.4301 47.8765C25.7018 48.2672 25.1157 48.8712 24.6716 49.6883C24.2275 50.5054 24.0054 51.5002 24.0054 52.6726C24.0054 53.8627 24.2186 54.8664 24.6449 55.6835C25.089 56.5006 25.6752 57.1134 26.4035 57.522C27.1318 57.9128 27.9312 58.1082 28.8016 58.1082ZM47.3905 45.132C49.1669 45.132 50.6057 45.6738 51.707 46.7574C52.8084 47.8232 53.359 49.3686 53.359 51.3936V60H50.961V51.74C50.961 50.2834 50.5968 49.1732 49.8685 48.4094C49.1402 47.6278 48.1455 47.237 46.8843 47.237C45.6053 47.237 44.5839 47.6366 43.8201 48.436C43.074 49.2354 42.701 50.3989 42.701 51.9265V60H40.2763V45.3985H42.701V47.4768C43.1806 46.7307 43.829 46.1534 44.6461 45.7448C45.481 45.3363 46.3958 45.132 47.3905 45.132ZM65.2334 45.132C67.0098 45.132 68.4486 45.6738 69.5499 46.7574C70.6513 47.8232 71.2019 49.3686 71.2019 51.3936V60H68.8039V51.74C68.8039 50.2834 68.4397 49.1732 67.7114 48.4094C66.9831 47.6278 65.9884 47.237 64.7272 47.237C63.4482 47.237 62.4268 47.6366 61.663 48.436C60.9169 49.2354 60.5439 50.3989 60.5439 51.9265V60H58.1192V45.3985H60.5439V47.4768C61.0235 46.7307 61.6718 46.1534 62.489 45.7448C63.3238 45.3363 64.2387 45.132 65.2334 45.132ZM89.2846 52.1397C89.2846 52.6015 89.258 53.09 89.2047 53.6052H77.5341C77.6229 55.044 78.1114 56.172 78.9996 56.9891C79.9055 57.7885 80.998 58.1881 82.2769 58.1881C83.325 58.1881 84.1954 57.9483 84.8882 57.4687C85.5987 56.9713 86.0961 56.3141 86.3803 55.497H88.9915C88.6007 56.9003 87.8191 58.046 86.6467 58.9342C85.4744 59.8046 84.0178 60.2398 82.2769 60.2398C80.8914 60.2398 79.648 59.9289 78.5466 59.3072C77.4631 58.6855 76.6104 57.8062 75.9887 56.6694C75.367 55.5147 75.0561 54.1825 75.0561 52.6726C75.0561 51.1627 75.3581 49.8393 75.962 48.7025C76.566 47.5656 77.4098 46.6952 78.4933 46.0912C79.5947 45.4695 80.8559 45.1586 82.2769 45.1586C83.6625 45.1586 84.8882 45.4606 85.954 46.0646C87.0198 46.6685 87.8369 47.5034 88.4053 48.5692C88.9915 49.6173 89.2846 50.8074 89.2846 52.1397ZM86.78 51.6334C86.78 50.7097 86.5757 49.9192 86.1671 49.262C85.7586 48.587 85.199 48.0807 84.4885 47.7432C83.7957 47.388 83.023 47.2103 82.1704 47.2103C80.9447 47.2103 79.8966 47.6011 79.0262 48.3827C78.1736 49.1643 77.6851 50.2479 77.5607 51.6334H86.78ZM92.3786 52.6726C92.3786 51.1627 92.6806 49.8482 93.2845 48.7291C93.8885 47.5922 94.7234 46.7129 95.7892 46.0912C96.8727 45.4695 98.1073 45.1586 99.4928 45.1586C101.287 45.1586 102.761 45.5938 103.916 46.4643C105.088 47.3347 105.861 48.5426 106.234 50.088H103.623C103.374 49.1998 102.886 48.4982 102.157 47.983C101.447 47.4679 100.559 47.2103 99.4928 47.2103C98.1073 47.2103 96.9882 47.6899 96.1356 48.6492C95.2829 49.5906 94.8566 50.9318 94.8566 52.6726C94.8566 54.4312 95.2829 55.7901 96.1356 56.7493C96.9882 57.7085 98.1073 58.1881 99.4928 58.1881C100.559 58.1881 101.447 57.9394 102.157 57.4421C102.868 56.9447 103.356 56.2342 103.623 55.3105H106.234C105.843 56.8026 105.062 58.0016 103.889 58.9075C102.717 59.7957 101.251 60.2398 99.4928 60.2398C98.1073 60.2398 96.8727 59.9289 95.7892 59.3072C94.7234 58.6855 93.8885 57.8062 93.2845 56.6694C92.6806 55.5325 92.3786 54.2002 92.3786 52.6726ZM113.226 47.3968V56.0032C113.226 56.7138 113.377 57.22 113.679 57.522C113.981 57.8062 114.505 57.9483 115.251 57.9483H117.037V60H114.852C113.502 60 112.489 59.6891 111.814 59.0674C111.139 58.4457 110.802 57.4243 110.802 56.0032V47.3968H108.91V45.3985H110.802V41.7214H113.226V45.3985H117.037V47.3968H113.226Z" fill="#DE8321"/>
</svg>
